<svg width="85" height="86" viewBox="0 0 85 86" fill="none" xmlns="http://www.w3.org/2000/svg">
<path d="M82.9874 12.383L68.3474 26.199L67.6264 25.478L80.9844 10.378L78.6674 8.06201L64.0254 21.878L63.3054 21.156L76.6644 6.05801L74.7344 4.13002L60.0914 17.946L59.3724 17.224L72.7314 2.12401L71.4204 0.812012C68.6004 1.79201 65.5564 3.70802 62.8464 6.41702L54.4594 14.805C48.5294 20.735 46.3574 28.269 49.6304 31.544L53.7134 35.625C56.9874 38.901 64.5224 36.728 70.4514 30.797L78.8394 22.41C81.5494 19.7 83.4644 16.657 84.4444 13.836L82.9874 12.383Z" fill="#6C4002"/>
<path d="M6.61637 85.026C4.70237 85.228 0.109375 80.584 0.109375 78.657C0.109375 71.323 21.5344 54.94 27.2424 50.327C34.7294 44.277 55.5954 24.214 55.5954 24.214L61.0424 29.661C61.0424 29.661 41.0514 50.584 34.9284 58.016C30.2624 63.678 13.9114 84.251 6.61637 85.026Z" fill="#6C4002"/>
<path d="M81.7172 78.688C81.9212 80.604 77.2763 85.197 75.3503 85.197C68.0123 85.197 51.6312 63.77 47.0202 58.063C40.9682 50.573 20.9062 29.709 20.9062 29.709L26.3522 24.262C26.3522 24.262 47.2763 44.253 54.7083 50.376C60.3693 55.041 80.9402 71.394 81.7172 78.688Z" fill="#E4C090"/>
<path d="M3.89961 0.812988C3.47761 10.828 6.72861 20.483 13.8306 27.584L17.3176 31.073C24.4206 38.174 34.0746 41.425 44.0886 41.004L3.89961 0.812988Z" fill="#E4C090"/>
</svg>
