<svg width="86" height="87" viewBox="0 0 86 87" fill="none" xmlns="http://www.w3.org/2000/svg">
<path d="M85.9065 43.451C85.9065 66.996 66.8205 86.082 43.2755 86.082C19.7315 86.082 0.644531 66.996 0.644531 43.451C0.644531 19.905 19.7315 0.820007 43.2755 0.820007C66.8205 0.820007 85.9065 19.905 85.9065 43.451Z" fill="#6C4002"/>
<path d="M80.2927 43.259C80.2927 63.7 63.7207 80.277 43.2767 80.277C22.8347 80.277 6.26172 63.701 6.26172 43.259C6.26172 22.816 22.8347 6.242 43.2767 6.242C63.7207 6.242 80.2927 22.816 80.2927 43.259Z" fill="white"/>
<path d="M45.9393 44.029V25.512C45.9393 24.122 44.8123 22.994 43.4203 22.994C42.0303 22.994 40.9023 24.122 40.9023 25.512V44.029H45.9393Z" fill="#E4C090"/>
<path d="M40.9023 46.544H56.7823C58.1743 46.544 59.3013 45.415 59.3013 44.024C59.3013 42.632 58.1743 41.507 56.7823 41.507H40.9023V46.544Z" fill="#E4C090"/>
<path d="M45.5427 10.668C45.5427 11.499 44.8627 12.179 44.0317 12.179H42.5217C41.6907 12.179 41.0117 11.499 41.0117 10.668V6.99902C41.0117 6.16802 41.6907 5.48804 42.5217 5.48804H44.0317C44.8627 5.48804 45.5427 6.16802 45.5427 6.99902V10.668Z" fill="#6C4002"/>
<path d="M45.5427 79.521C45.5427 80.352 44.8627 81.032 44.0317 81.032H42.5217C41.6907 81.032 41.0117 80.352 41.0117 79.521V75.85C41.0117 75.019 41.6907 74.339 42.5217 74.339H44.0317C44.8627 74.339 45.5427 75.019 45.5427 75.85V79.521Z" fill="#6C4002"/>
<path d="M81.0465 44.206C81.0465 45.037 80.3665 45.717 79.5365 45.717H75.8655C75.0355 45.717 74.3555 45.037 74.3555 44.206V42.695C74.3555 41.865 75.0355 41.185 75.8655 41.185H79.5365C80.3665 41.185 81.0465 41.865 81.0465 42.695V44.206Z" fill="#6C4002"/>
<path d="M12.1959 44.206C12.1959 45.037 11.5159 45.717 10.6859 45.717H7.01391C6.18391 45.717 5.50391 45.037 5.50391 44.206V42.695C5.50391 41.865 6.18391 41.185 7.01391 41.185H10.6859C11.5159 41.185 12.1959 41.865 12.1959 42.695V44.206Z" fill="#6C4002"/>
</svg>
