<svg width="98" height="89" viewBox="0 0 98 89" fill="none" xmlns="http://www.w3.org/2000/svg">
<path d="M91.6107 49.605H7.22368C3.59968 49.605 1.49068 48.594 0.955676 46.599C0.420676 44.604 1.74069 42.674 4.87969 40.861L40.4657 20.304C42.8847 18.908 46.0637 18.138 49.4157 18.138C52.7687 18.138 55.9477 18.907 58.3667 20.304L93.9527 40.861C97.0917 42.674 98.4117 44.604 97.8777 46.598C97.3447 48.593 95.2347 49.605 91.6107 49.605ZM6.68367 45.064C6.84967 45.07 7.02969 45.074 7.22469 45.074H91.6117C91.8057 45.074 91.9857 45.071 92.1517 45.064C92.0107 44.976 91.8577 44.883 91.6887 44.785L56.1027 24.228C54.3867 23.237 51.9507 22.669 49.4177 22.669C46.8857 22.669 44.4487 23.237 42.7327 24.228L7.14669 44.785C6.97768 44.882 6.82367 44.975 6.68367 45.064Z" fill="#6C4002"/>
<path d="M46.964 21.523C45.348 14.923 44.746 3.21803 52.74 1.21003C55.845 0.431025 58.571 1.45998 60.031 3.96198C61.69 6.80398 61.362 11.173 59.33 13.312C57.97 14.744 56.002 15.049 54.196 14.116L56.277 10.094C56.261 10.111 56.098 10.149 56.031 10.205C56.447 9.86102 56.923 7.82698 56.189 6.37598C55.872 5.74998 55.364 5.22298 53.843 5.60498C49.143 6.78598 50.513 16.971 51.364 20.446L46.964 21.523Z" fill="#6C4002"/>
<path d="M57.6444 23.33C55.3974 21.819 52.4984 20.985 49.4154 20.985C46.3344 20.985 43.4364 21.819 41.1914 23.33H57.6444Z" fill="#6C4002"/>
<path d="M89.512 84.696C89.512 89.337 9.16797 89.337 9.16797 84.696V50.584C9.16797 45.944 11.782 42.144 14.978 42.144H83.703C86.895 42.144 89.512 45.944 89.512 50.584V84.696Z" fill="#E4C090"/>
<path d="M9.25 69.213V74.751C9.25 79.392 89.592 79.392 89.592 74.751V69.213C89.592 73.854 9.25 73.854 9.25 69.213Z" fill="#6C4002"/>
</svg>
