<svg width="102" height="61" viewBox="0 0 102 61" fill="none" xmlns="http://www.w3.org/2000/svg">
<path d="M0.774208 50.532C-0.0257916 49.845 -4.21284 24.801 21.3282 22.54C47.4512 20.226 50.0312 28.919 68.8132 25.727C87.5942 22.54 88.1282 23.196 90.7712 23.86C103.37 27.024 101.47 45.391 100.053 48.228C98.6372 51.063 2.23921 51.789 0.774208 50.532Z" fill="#6C4002"/>
<path d="M17.3125 27.5059C17.3125 27.5059 23.3535 12.31 37.6915 5.26995C53.4135 -2.45205 87.6405 -2.85305 89.6695 26.498C90.0485 31.974 17.3125 27.5059 17.3125 27.5059Z" fill="#6C4002"/>
<path d="M66.2444 23.385C52.9784 23.385 36.8345 22.695 26.8555 22.191C29.7245 18.172 34.0785 13.451 40.0665 10.51C44.9865 8.09498 51.8005 6.65298 58.2915 6.65298C66.4815 6.65298 79.9055 8.85698 83.0515 22.747C80.3085 23.063 75.2954 23.385 66.2444 23.385Z" fill="#E4C090"/>
<path d="M63.4232 6.57996H58.1172V47.469H63.4232V6.57996Z" fill="#6C4002"/>
<path d="M35.8262 46.921C35.8262 54.192 29.9302 60.09 22.6592 60.09C15.3882 60.09 9.49219 54.192 9.49219 46.921C9.49219 39.647 15.3882 33.752 22.6592 33.752C29.9312 33.752 35.8262 39.647 35.8262 46.921Z" fill="#6C4002"/>
<path d="M92.5411 46.921C92.5411 54.192 86.646 60.09 79.373 60.09C72.102 60.09 66.207 54.192 66.207 46.921C66.207 39.647 72.103 33.752 79.373 33.752C86.646 33.752 92.5411 39.647 92.5411 46.921Z" fill="#6C4002"/>
<path d="M87.3771 47.469C87.3771 51.889 83.7961 55.474 79.3731 55.474C74.9541 55.474 71.3711 51.889 71.3711 47.469C71.3711 43.05 74.9541 39.466 79.3731 39.466C83.7961 39.466 87.3771 43.05 87.3771 47.469Z" fill="#E4C090"/>
<path d="M30.6573 47.469C30.6573 51.889 27.0753 55.474 22.6563 55.474C18.2353 55.474 14.6523 51.889 14.6523 47.469C14.6523 43.05 18.2353 39.466 22.6563 39.466C27.0753 39.466 30.6573 43.05 30.6573 47.469Z" fill="#E4C090"/>
</svg>
