<svg width="79" height="80" viewBox="0 0 79 80" fill="none" xmlns="http://www.w3.org/2000/svg">
<path d="M30.793 74.434C30.793 74.434 44.3021 64.119 54.3721 54.048C63.3991 45.021 73.722 31.504 73.722 31.504C80.733 24.496 80.732 13.135 73.722 6.12598C73.722 6.12598 53.636 32.926 43.488 43.074C32.144 54.418 5.41406 74.434 5.41406 74.434C12.4201 81.442 23.785 81.442 30.793 74.434Z" fill="#6C4002"/>
<path d="M52.3154 26.272C47.4624 21.419 45.6235 15.385 48.2125 12.798L59.6194 1.39098C62.2074 -1.19502 68.2384 0.641962 73.0914 5.49596C77.9444 10.349 79.7824 16.382 77.1954 18.968L65.7874 30.376C63.2004 32.965 57.1694 31.125 52.3154 26.272Z" fill="#6C4002"/>
<path d="M5.41275 74.434C0.558746 69.581 -1.27726 63.546 1.30874 60.96L12.7157 49.553C15.3047 46.965 21.3337 48.805 26.1877 53.656C31.0417 58.512 32.8787 64.543 30.2937 67.13L18.8867 78.538C16.2967 81.124 10.2677 79.288 5.41275 74.434Z" fill="#6C4002"/>
</svg>
