<svg width="79" height="85" viewBox="0 0 79 85" fill="none" xmlns="http://www.w3.org/2000/svg">
<path d="M3.94446 84.828C2.19946 84.828 0.773438 83.402 0.773438 81.657V3.853C0.773438 2.109 2.19946 0.682007 3.94446 0.682007H75.1695C76.9125 0.682007 78.3395 2.109 78.3395 3.853V81.657C78.3395 83.402 76.9125 84.828 75.1695 84.828H3.94446Z" fill="#6C4002"/>
<path d="M11.932 8.858C11.932 9.886 11.098 10.718 10.073 10.718H7.48401C6.45701 10.718 5.625 9.886 5.625 8.858C5.625 7.833 6.45701 7 7.48401 7H10.073C11.098 7 11.932 7.833 11.932 8.858Z" fill="white"/>
<path d="M21.1508 8.858C21.1508 9.886 20.3167 10.718 19.2917 10.718H16.7028C15.6758 10.718 14.8438 9.886 14.8438 8.858C14.8438 7.833 15.6758 7 16.7028 7H19.2917C20.3167 7 21.1508 7.833 21.1508 8.858Z" fill="#E4C090"/>
<path d="M78.3384 15.718H0.773438V18.602H78.3384V15.718Z" fill="#E4C090"/>
<path d="M65.0013 49.802C65.0013 63.856 53.6103 75.245 39.5603 75.245C25.5043 75.245 14.1133 63.856 14.1133 49.802C14.1133 35.751 25.5053 24.36 39.5603 24.36C53.6103 24.36 65.0013 35.751 65.0013 49.802Z" fill="white"/>
<path d="M61.9828 49.802C61.9828 62.189 51.9438 72.226 39.5598 72.226C27.1708 72.226 17.1328 62.189 17.1328 49.802C17.1328 37.419 27.1708 27.381 39.5598 27.381C51.9438 27.382 61.9828 37.419 61.9828 49.802Z" fill="#E4C090"/>
<path d="M61.9827 53.951C60.1147 53.951 58.5977 52.438 58.5977 50.569V49.038C58.5977 47.17 60.1147 45.654 61.9827 45.654C63.8497 45.654 65.3657 47.17 65.3657 49.038V50.569C65.3657 52.438 63.8507 53.951 61.9827 53.951Z" fill="#6C4002"/>
</svg>
