<svg width="55" height="58" viewBox="0 0 55 58" fill="none" xmlns="http://www.w3.org/2000/svg">
<path d="M54.5542 26.879C54.5542 29.445 52.4532 31.547 49.8852 31.547H4.94925C2.38025 31.547 0.28125 29.445 0.28125 26.879V5.06296C0.28125 2.49596 2.38025 0.394958 4.94925 0.394958H49.8852C52.4532 0.394958 54.5542 2.49596 54.5542 5.06296V26.879Z" fill="#6C4002"/>
<path d="M54.5542 38.617C54.5542 40.99 52.6142 42.931 50.2412 42.931H4.59424C2.22124 42.931 0.28125 40.99 0.28125 38.617V28.191C0.28125 25.818 2.22024 23.879 4.59424 23.879H50.2412C52.6142 23.879 54.5542 25.818 54.5542 28.191V38.617Z" fill="#E4C090"/>
<path d="M54.5543 38.614H0.28125V47.6H54.5543V38.614Z" fill="#6C4002"/>
<path d="M10.5992 42.026H0.28125V57.483H10.5992V42.026Z" fill="#6C4002"/>
<path d="M54.5524 42.026H44.2344V57.483H54.5524V42.026Z" fill="#6C4002"/>
<path d="M48.6352 18.026C48.6352 20.079 46.9572 21.756 44.9072 21.756H9.92722C7.87722 21.756 6.19922 20.079 6.19922 18.026V9.91101C6.19922 7.86001 7.87722 6.18201 9.92722 6.18201H44.9072C46.9582 6.18201 48.6352 7.86001 48.6352 9.91101V18.026Z" fill="#E4C090"/>
</svg>
