<svg width="97" height="67" viewBox="0 0 97 67" fill="none" xmlns="http://www.w3.org/2000/svg">
<path d="M95.1374 62.4749C95.1374 64.8959 93.1584 66.8759 90.7364 66.8759H6.5914C4.1714 66.8759 2.19141 64.8959 2.19141 62.4749V4.42798C2.19141 2.00798 4.1714 0.0269775 6.5914 0.0269775H90.7364C93.1584 0.0269775 95.1374 2.00698 95.1374 4.42798V62.4749Z" fill="#E4C090"/>
<path d="M91.4478 62.523C91.4478 64.918 89.4877 66.877 87.0938 66.877H4.86572C2.47072 66.877 0.511719 64.918 0.511719 62.523V4.37997C0.511719 1.98697 2.47072 0.0269775 4.86572 0.0269775H87.0938C89.4887 0.0269775 91.4478 1.98697 91.4478 4.37997V62.523Z" fill="#6C4002"/>
<path d="M93.4607 29.717H0.511719V35.619H93.4607V29.717Z" fill="#E4C090"/>
<path d="M96.3235 42.248C96.3235 42.953 95.7465 43.529 95.0425 43.529H68.8425C68.1365 43.529 67.5625 42.953 67.5625 42.248V24.654C67.5625 23.95 68.1365 23.374 68.8425 23.374H95.0425C95.7465 23.374 96.3235 23.95 96.3235 24.654V42.248Z" fill="#E4C090"/>
<path d="M82.7009 32.664C82.7009 35.813 80.1479 38.366 76.9989 38.366C73.8509 38.366 71.2969 35.813 71.2969 32.664C71.2969 29.515 73.8509 26.963 76.9989 26.963C80.1479 26.964 82.7009 29.515 82.7009 32.664Z" fill="#6C4002"/>
</svg>
