<svg width="91" height="91" viewBox="0 0 91 91" fill="none" xmlns="http://www.w3.org/2000/svg">
<path d="M57.422 43.192C57.422 43.594 57.092 43.924 56.689 43.924H34.15C33.747 43.924 33.418 43.594 33.418 43.192V29.225C33.418 28.822 33.747 28.493 34.15 28.493H56.688C57.091 28.493 57.421 28.822 57.421 29.225V43.192H57.422Z" fill="#6C4002"/>
<path d="M90.0748 88.102C90.0748 89.601 88.8468 90.828 87.3478 90.828H3.4838C1.9848 90.828 0.757812 89.601 0.757812 88.102V33.432C0.757812 31.933 1.9848 30.706 3.4838 30.706H87.3478C88.8468 30.706 90.0748 31.933 90.0748 33.432V88.102Z" fill="#6C4002"/>
<path d="M79.3626 78.539C79.3626 79.679 78.4287 80.611 77.2907 80.611H13.5446C12.4046 80.611 11.4727 79.678 11.4727 78.539V39.037C11.4727 37.896 12.4056 36.965 13.5446 36.965H77.2907C78.4297 36.965 79.3626 37.896 79.3626 39.037V78.539Z" fill="#E4C090"/>
<path d="M18.0486 85.775C18.0486 86.845 17.1805 87.713 16.1105 87.713H13.4125C12.3425 87.713 11.4766 86.845 11.4766 85.775C11.4766 84.704 12.3425 83.837 13.4125 83.837H16.1105C17.1805 83.838 18.0486 84.704 18.0486 85.775Z" fill="white"/>
<path d="M27.6511 85.775C27.6511 86.845 26.7811 87.713 25.7131 87.713H23.0131C21.9441 87.713 21.0781 86.845 21.0781 85.775C21.0781 84.704 21.9431 83.837 23.0131 83.837H25.7131C26.7811 83.838 27.6511 84.704 27.6511 85.775Z" fill="#E4C090"/>
<path d="M71.5767 4.45598C71.0447 5.27598 69.9467 5.50998 69.1287 4.97698L67.0637 3.63498C66.2437 3.10098 66.0108 2.00698 66.5448 1.18698C67.0768 0.365979 68.1708 0.132983 68.9898 0.664983L71.0557 2.00699C71.8767 2.54099 72.1097 3.63598 71.5767 4.45598Z" fill="#6C4002"/>
<path d="M16.073 13.267C15.254 12.734 15.018 11.638 15.551 10.817L16.893 8.752C17.427 7.933 18.521 7.70001 19.342 8.23401C20.163 8.76601 20.396 9.86001 19.863 10.681L18.52 12.746C17.989 13.566 16.892 13.8 16.073 13.267Z" fill="#6C4002"/>
<path d="M49.2239 32.888C56.2369 23.38 63.2479 13.872 70.2609 4.36298C71.7079 2.39998 68.4279 0.519982 66.9999 2.45698C59.9879 11.966 52.9759 21.474 45.9619 30.982C44.5159 32.945 47.7939 34.825 49.2239 32.888Z" fill="#6C4002"/>
<path d="M48.1541 31.403C38.3221 24.152 28.4921 16.902 18.6611 9.65098C16.6981 8.20298 14.8171 11.484 16.7561 12.912C26.5861 20.162 36.4181 27.413 46.2481 34.663C48.2111 36.111 50.0911 32.831 48.1541 31.403Z" fill="#6C4002"/>
</svg>
