<svg width="92" height="82" viewBox="0 0 92 82" fill="none" xmlns="http://www.w3.org/2000/svg">
<path d="M4.33517 81.194C2.29017 81.194 0.617188 79.52 0.617188 77.476V4.17297C0.617188 2.12797 2.29017 0.455017 4.33517 0.455017H87.3232C89.3682 0.455017 91.0412 2.12797 91.0412 4.17297V77.476C91.0412 79.52 89.3682 81.194 87.3232 81.194H4.33517Z" fill="#6C4002"/>
<path d="M81.7077 76.832H9.95166C7.34366 76.832 5.22266 74.711 5.22266 72.104V9.54602C5.22266 6.93902 7.34466 4.81702 9.95166 4.81702H81.7077C84.3157 4.81702 86.4377 6.93902 86.4377 9.54602V72.104C86.4387 74.711 84.3157 76.832 81.7077 76.832ZM9.95267 7.88702C9.03767 7.88702 8.29367 8.63102 8.29367 9.54602V72.104C8.29367 73.018 9.03767 73.762 9.95267 73.762H81.7087C82.6237 73.762 83.3687 73.018 83.3687 72.104V9.54602C83.3687 8.63102 82.6237 7.88702 81.7087 7.88702H9.95267Z" fill="white"/>
<path d="M37.7522 65.779H31.6992V17.458H48.8332C54.1902 17.458 58.1442 18.916 60.6922 21.83C63.2412 24.745 64.5152 28.067 64.5152 31.795C64.5152 35.949 63.1282 39.383 60.3552 42.097C57.5822 44.811 53.9532 46.168 49.4692 46.168H37.7522V65.779ZM37.7522 41.14H48.8682C51.7232 41.14 54.0242 40.285 55.7712 38.574C57.5182 36.863 58.3912 34.604 58.3912 31.795C58.3912 29.388 57.6122 27.241 56.0552 25.352C54.4972 23.464 52.2432 22.52 49.2942 22.52H37.7542V41.14H37.7522Z" fill="#E4C090"/>
</svg>
