<svg width="103" height="66" viewBox="0 0 103 66" fill="none" xmlns="http://www.w3.org/2000/svg">
<path d="M102.239 49.957C102.239 52.152 100.443 53.949 98.2479 53.949H15.4129C13.2179 53.949 11.4219 52.152 11.4219 49.957V4.84598C11.4219 2.64998 13.2179 0.852966 15.4129 0.852966H98.2479C100.443 0.852966 102.239 2.64998 102.239 4.84598V49.957Z" fill="#6C4002"/>
<path d="M102.239 18.455H11.4219V28.912H102.239V18.455Z" fill="#E4C090"/>
<path d="M86.8284 61.22C86.8284 63.314 85.1164 65.025 83.0224 65.025H4.12241C2.02941 65.025 0.316406 63.314 0.316406 61.22V18.154C0.316406 16.06 2.02941 14.349 4.12241 14.349H83.0224C85.1164 14.349 86.8284 16.06 86.8284 18.154V61.22Z" fill="#E4C090"/>
<path d="M80.0736 30.005C79.9626 30.558 78.3616 30.667 78.1636 31.175C77.9596 31.7 79.0606 32.864 78.7756 33.333C78.4846 33.81 76.9426 33.364 76.5776 33.776C76.2106 34.193 76.8456 35.667 76.4136 36.011C75.9796 36.359 74.6836 35.413 74.1976 35.679C73.7126 35.944 73.8066 37.546 73.2806 37.726C72.7586 37.901 71.8636 36.571 71.3106 36.655C70.7686 36.74 70.3096 38.277 69.7486 38.263C69.2036 38.249 68.8196 36.692 68.2656 36.581C67.7126 36.47 66.7566 37.759 66.2476 37.56C65.7246 37.357 65.8946 35.761 65.4266 35.476C64.9496 35.185 63.6096 36.066 63.1966 35.7C62.7796 35.333 63.4856 33.892 63.1406 33.46C62.7946 33.026 61.2336 33.398 60.9686 32.911C60.7026 32.427 61.8566 31.312 61.6786 30.786C61.5016 30.265 59.9076 30.079 59.8236 29.528C59.7416 28.985 61.2066 28.337 61.2206 27.776C61.2346 27.232 59.7996 26.511 59.9106 25.958C60.0226 25.403 61.6236 25.294 61.8216 24.786C62.0256 24.263 60.9246 23.099 61.2096 22.63C61.5006 22.153 63.0426 22.599 63.4066 22.185C63.7746 21.769 63.1396 20.296 63.5716 19.952C64.0056 19.605 65.3016 20.55 65.7886 20.284C66.2736 20.019 66.1776 18.417 66.7046 18.239C67.2266 18.062 68.1216 19.392 68.6736 19.308C69.2156 19.226 69.6746 17.689 70.2356 17.702C70.7816 17.714 71.1656 19.271 71.7196 19.382C72.2726 19.493 73.2276 18.206 73.7366 18.405C74.2596 18.609 74.0896 20.204 74.5576 20.49C75.0346 20.78 76.3746 19.899 76.7866 20.263C77.2046 20.63 76.4986 22.071 76.8446 22.503C77.1896 22.937 78.7496 22.566 79.0166 23.052C79.2816 23.536 78.1276 24.65 78.3056 25.177C78.4826 25.698 80.0766 25.882 80.1606 26.433C80.2426 26.978 78.7786 27.626 78.7636 28.187C78.7496 28.733 80.1846 29.451 80.0736 30.005Z" fill="white"/>
<path d="M78.4123 42.306H6.73828V45.357H78.4123V42.306Z" fill="#6C4002"/>
<path d="M50.9823 49.439H6.73828V52.492H50.9823V49.439Z" fill="#6C4002"/>
</svg>
