<svg width="99" height="80" viewBox="0 0 99 80" fill="none" xmlns="http://www.w3.org/2000/svg">
<path d="M33.4365 18.771C33.4365 11.089 38.1735 4.10901 44.0145 4.10901H55.0935C60.9335 4.10901 65.6696 11.089 65.6696 18.771C65.6696 20.275 63.8765 22.498 65.1505 23.083C67.6765 24.238 67.7125 17.947 67.7125 14.832C67.7125 7.478 62.3756 0.760986 55.7946 0.760986H43.3105C36.7305 0.760986 31.3945 7.478 31.3945 14.832C31.3945 17.947 31.4305 24.238 33.9575 23.083C35.2265 22.498 33.4365 20.275 33.4365 18.771Z" fill="#6C4002"/>
<path d="M33.3846 23.978H33.3826C30.8526 23.978 30.6406 19.255 30.6406 14.832C30.6406 6.794 36.4446 0.00500488 43.3126 0.00500488H55.7966C62.6656 0.00500488 68.4716 6.794 68.4716 14.832C68.4716 19.257 68.2596 23.978 65.7286 23.978C65.4406 23.978 65.1426 23.908 64.8376 23.771C63.4086 23.113 64.0356 21.49 64.4506 20.415C64.6796 19.822 64.9166 19.208 64.9166 18.771C64.9166 11.361 60.3276 4.86499 55.0956 4.86499H44.0167C38.7847 4.86499 34.1936 11.361 34.1936 18.771C34.1936 19.208 34.4316 19.822 34.6606 20.415C35.0756 21.49 35.7016 23.113 34.2756 23.769C33.9696 23.908 33.6716 23.978 33.3846 23.978ZM44.0167 3.353H55.0956C61.2386 3.353 66.4286 10.414 66.4286 18.771C66.4286 19.49 66.1396 20.236 65.8596 20.958C65.6816 21.421 65.3827 22.195 65.4597 22.408C65.5967 22.455 65.6816 22.469 65.7286 22.469C66.0176 22.469 66.9606 21.918 66.9606 14.833C66.9606 7.73901 61.7446 1.51599 55.7976 1.51599H43.3137C37.3687 1.51599 32.1526 7.73901 32.1526 14.833C32.1526 21.918 33.0966 22.469 33.3856 22.469C33.4536 22.469 33.5426 22.444 33.6466 22.397C33.7296 22.198 33.4306 21.422 33.2516 20.962C32.9726 20.238 32.6837 19.492 32.6837 18.772C32.6827 10.414 37.8717 3.353 44.0167 3.353Z" fill="#6C4002"/>
<path d="M98.5873 24.902V68.582C98.5873 74.793 93.5063 79.874 87.3033 79.874H11.8173C5.60632 79.874 0.527344 74.794 0.527344 68.582V24.902C0.527344 18.695 5.60632 13.617 11.8173 13.617H87.3033C93.5063 13.617 98.5873 18.695 98.5873 24.902Z" fill="#E4C090"/>
<path d="M8.87744 21.568C10.5914 19.502 12.7635 16.765 15.2095 13.615H11.8145C5.60345 13.615 0.523438 18.697 0.523438 24.902V31.027C3.96144 27.257 6.93844 23.912 8.87744 21.568Z" fill="#6C4002"/>
<path d="M90.2323 21.568C88.5193 19.502 87.3483 16.765 84.9023 13.615H87.2943C93.5043 13.615 98.5853 18.697 98.5853 24.902V31.027C95.1463 27.257 92.1693 23.912 90.2323 21.568Z" fill="#6C4002"/>
<path d="M8.87744 71.918C10.5914 73.986 12.7635 76.723 15.2095 79.873H11.8145C5.60345 79.873 0.523438 74.791 0.523438 68.582V62.459C3.96144 66.229 6.93844 69.574 8.87744 71.918Z" fill="#6C4002"/>
<path d="M90.2323 71.918C88.5193 73.986 87.3483 76.723 84.9023 79.873H87.2943C93.5043 79.873 98.5853 74.791 98.5853 68.582V62.459C95.1463 66.229 92.1693 69.574 90.2323 71.918Z" fill="#6C4002"/>
<path d="M79.2207 13.615H70.9297V79.873H79.2207V13.615Z" fill="#6C4002"/>
<path d="M29.6162 13.615H21.3242V79.873H29.6162V13.615Z" fill="#6C4002"/>
</svg>
