<svg width="106" height="58" viewBox="0 0 106 58" fill="none" xmlns="http://www.w3.org/2000/svg">
<path d="M105.159 26.878C105.159 29.446 103.056 31.55 100.487 31.55H5.173C2.603 31.55 0.5 29.446 0.5 26.878V5.03796C0.5 2.46996 2.603 0.365967 5.173 0.365967H100.487C103.056 0.365967 105.159 2.46996 105.159 5.03796V26.878Z" fill="#6C4002"/>
<path d="M105.162 38.6279C105.162 41.0029 103.219 42.946 100.845 42.946H4.82191C2.44791 42.946 0.503906 41.0029 0.503906 38.6279V28.1899C0.503906 25.8149 2.44791 23.8719 4.82191 23.8719H100.845C103.219 23.8719 105.162 25.8149 105.162 28.1899V38.6279Z" fill="#E4C090"/>
<path d="M105.158 38.624H0.5V47.618H105.158V38.624Z" fill="#6C4002"/>
<path d="M13.094 42.041H0.5V57.512H13.094V42.041Z" fill="#6C4002"/>
<path d="M105.158 42.041H92.5664V57.512H105.158V42.041Z" fill="#6C4002"/>
<path d="M49.1196 18.02C49.1196 20.073 47.4406 21.752 45.3866 21.752H12.3726C10.3196 21.752 8.64062 20.073 8.64062 18.02V9.89496C8.64062 7.84196 10.3196 6.16296 12.3726 6.16296H45.3866C47.4406 6.16296 49.1196 7.84196 49.1196 9.89496V18.02Z" fill="#E4C090"/>
<path d="M96.5962 18.02C96.5962 20.073 94.9172 21.752 92.8632 21.752H59.8502C57.7962 21.752 56.1172 20.073 56.1172 18.02V9.89496C56.1172 7.84196 57.7962 6.16296 59.8502 6.16296H92.8632C94.9172 6.16296 96.5962 7.84196 96.5962 9.89496V18.02Z" fill="#E4C090"/>
</svg>
