<svg width="83" height="77" viewBox="0 0 83 77" fill="none" xmlns="http://www.w3.org/2000/svg">
<path d="M82.4804 65.4449H0.441406V73.1359H82.4804V65.4449Z" fill="#6C4002"/>
<path d="M78.9117 8.98694H4.01172V70.2109H78.9117V8.98694Z" fill="#6C4002"/>
<path d="M51.8328 52.84H31.0898V74.19H51.8328V52.84Z" fill="white"/>
<path d="M56.0717 71.439H26.8477V76.835H56.0717V71.439Z" fill="#6C4002"/>
<path d="M47.9747 16.283H34.0938V28.366H47.9747V16.283Z" fill="#E4C090"/>
<path d="M26.2951 16.283H12.4141V28.366H26.2951V16.283Z" fill="#E4C090"/>
<path d="M26.2951 34.6689H12.4141V46.7509H26.2951V34.6689Z" fill="#E4C090"/>
<path d="M26.2951 52.825H12.4141V64.907H26.2951V52.825Z" fill="#E4C090"/>
<path d="M47.9747 34.6689H34.0938V46.7509H47.9747V34.6689Z" fill="#E4C090"/>
<path d="M69.6593 16.283H55.7773V28.366H69.6593V16.283Z" fill="#E4C090"/>
<path d="M69.6583 52.825H55.7773V64.907H69.6583V52.825Z" fill="#E4C090"/>
<path d="M69.6593 34.6689H55.7773V46.7509H69.6593V34.6689Z" fill="#E4C090"/>
<path d="M71.7561 11.185H11.1641L17.7121 0.107971H65.2081L71.7561 11.185Z" fill="#6C4002"/>
<path d="M29.5003 2.34796L30.5713 4.51996L32.9683 4.86696L31.2333 6.55796L31.6442 8.94496L29.5003 7.81796L27.3563 8.94496L27.7663 6.55796L26.0312 4.86696L28.4293 4.51996L29.5003 2.34796Z" fill="white"/>
<path d="M41.4602 2.34796L42.5312 4.51896L44.9282 4.86796L43.1942 6.55796L43.6042 8.94496L41.4602 7.81696L39.3172 8.94496L39.7262 6.55796L37.9922 4.86796L40.3882 4.51896L41.4602 2.34796Z" fill="white"/>
<path d="M53.424 2.34796L54.496 4.51996L56.892 4.86796L55.159 6.55796L55.567 8.94496L53.424 7.81796L51.281 8.94496L51.69 6.55796L49.957 4.86796L52.352 4.51996L53.424 2.34796Z" fill="white"/>
</svg>
