<svg width="87" height="84" viewBox="0 0 87 84" fill="none" xmlns="http://www.w3.org/2000/svg">
<path d="M39.3586 77.808C72.2986 77.808 74.8706 58.326 75.0706 33.123C75.0886 30.99 77.7836 28.816 77.7836 26.608H0.933594C0.933594 28.999 3.63758 31.354 3.67358 33.659C4.06458 58.598 7.71458 77.808 39.3586 77.808Z" fill="#6C4002"/>
<path d="M68.9929 34.829L61.2969 36.076L61.7249 39.31L67.5919 38.358C74.4669 37.245 80.7559 41.748 81.6389 48.421C82.5219 55.092 77.6649 61.404 70.7899 62.517L64.9239 63.47L65.3049 66.35L72.9999 65.1C81.6149 63.705 87.7009 55.796 86.5959 47.435C85.4879 39.074 77.6079 33.432 68.9929 34.829Z" fill="#6C4002"/>
<path d="M12.6093 36.804C12.5823 34.967 10.4253 33.091 10.4253 31.185H6.65625C6.65625 33.091 8.81125 34.967 8.84125 36.804C9.15025 56.677 12.0602 71.988 37.2762 71.988C37.9312 71.988 38.5593 71.969 39.1833 71.951C15.6943 71.203 12.9123 56.173 12.6093 36.804Z" fill="white"/>
<path d="M31.2732 0.515984C31.2732 0.515984 31.1892 0.568976 31.0292 0.669976C30.8732 0.765976 30.6232 0.901978 30.3432 1.08198C30.2082 1.17298 30.0572 1.27198 29.8932 1.37998C29.7472 1.49598 29.5892 1.62298 29.4192 1.75698C29.1192 2.04898 28.8492 2.37198 28.7022 2.78298C28.6112 2.97198 28.5592 3.20798 28.5072 3.44698C28.4592 3.65798 28.4202 4.02698 28.4062 4.18398C28.3972 4.34898 28.3862 4.51697 28.3762 4.68697L28.3582 4.94198C28.3682 5.00098 28.3872 5.04098 28.3992 5.09098C28.4292 5.18598 28.4382 5.26898 28.4552 5.36898C28.4982 5.48298 28.5362 5.59598 28.5702 5.70998C28.7582 6.16298 29.0332 6.62598 29.4462 7.12598C29.6542 7.37798 29.8742 7.62198 30.1162 7.88899L30.8852 8.72698C31.3922 9.30398 31.9252 9.93897 32.3942 10.603C32.8622 11.29 33.2952 12.008 33.5902 12.825C33.6612 13.029 33.7312 13.23 33.8012 13.43C33.8572 13.64 33.8912 13.866 33.9262 14.079C34.0212 14.497 34.0042 14.95 33.9742 15.376L33.9502 15.69L33.9302 15.838L33.9272 15.846L33.9222 15.86L33.9132 15.889L33.8932 15.947L33.8542 16.061C33.7962 16.222 33.7662 16.349 33.6872 16.528C33.4882 16.934 33.2792 17.347 33.0492 17.574C32.6122 18.119 32.1302 18.441 31.7252 18.726C31.3242 19.009 30.9492 19.206 30.6542 19.377C30.0552 19.712 29.6992 19.902 29.6992 19.902C29.6992 19.902 29.8642 19.53 30.2382 18.944C30.4222 18.658 30.6472 18.312 30.9032 17.914C31.0172 17.72 31.1632 17.52 31.2602 17.302C31.3742 17.089 31.4932 16.875 31.5622 16.65C31.6792 16.413 31.6562 16.249 31.7112 16.091C31.7262 15.977 31.7342 15.789 31.7472 15.638L31.7562 15.515L31.7592 15.455L31.7622 15.425L31.7642 15.409V15.401C31.7692 15.368 31.7282 15.661 31.7442 15.534L31.7002 15.359C31.6432 15.127 31.6302 14.9 31.5012 14.656L31.3582 14.292L31.1462 13.919C30.8752 13.414 30.4632 12.899 30.0542 12.364C29.6012 11.835 29.1472 11.298 28.6302 10.736L27.8702 9.86498C27.6012 9.56598 27.3472 9.21297 27.0972 8.86797C26.5962 8.16897 26.1712 7.29497 25.9822 6.36597C25.9512 6.12897 25.9202 5.89397 25.8892 5.66097C25.8792 5.41097 25.9012 5.14198 25.9222 4.89298C25.9342 4.76898 25.9452 4.63697 25.9622 4.52697L26.0322 4.27998C26.0802 4.11798 26.1282 3.95597 26.1752 3.79697L26.1842 3.76798C26.1822 3.77898 26.2092 3.64998 26.1992 3.70098L26.2022 3.69198L26.2092 3.67498L26.2362 3.60798L26.2902 3.47398L26.3962 3.21198C26.4722 3.03798 26.5242 2.87198 26.6332 2.70498C26.8252 2.37198 27.0062 2.05797 27.2722 1.78797C27.4962 1.50497 27.7992 1.30597 28.0612 1.11797C28.3412 0.961974 28.6172 0.841978 28.8652 0.747978C29.1232 0.680978 29.3552 0.606977 29.5752 0.570977C29.7932 0.547977 29.9932 0.52698 30.1742 0.50898C30.5272 0.46698 30.7982 0.507976 30.9852 0.501976C31.1722 0.511976 31.2732 0.515984 31.2732 0.515984Z" fill="#6C4002"/>
<path d="M41.1618 0.118001C41.1618 0.118001 41.0759 0.172 40.9179 0.271C40.7619 0.368 40.5118 0.50401 40.2318 0.68401C40.0968 0.77401 39.9458 0.874006 39.7828 0.983006C39.6358 1.09901 39.4768 1.225 39.3078 1.36C39.0078 1.652 38.7369 1.97501 38.5909 2.38601C38.4999 2.57301 38.4478 2.81001 38.3948 3.04801C38.3478 3.26101 38.3088 3.628 38.2948 3.786C38.2848 3.951 38.2749 4.119 38.2639 4.288L38.2459 4.54401C38.2569 4.60201 38.2758 4.64301 38.2868 4.69201C38.3168 4.78701 38.3258 4.87001 38.3438 4.97001C38.3858 5.08401 38.4248 5.19801 38.4588 5.31101C38.6468 5.76401 38.9218 6.22801 39.3348 6.72701C39.5428 6.98001 39.7619 7.22401 40.0049 7.49001L40.7738 8.329C41.2818 8.907 41.8148 9.54101 42.2828 10.205C42.7498 10.892 43.1839 11.61 43.4789 12.427C43.5499 12.63 43.6209 12.832 43.6899 13.032C43.7459 13.242 43.7789 13.468 43.8149 13.68C43.9099 14.097 43.8929 14.551 43.8619 14.976L43.8388 15.291L43.8178 15.439L43.8158 15.447L43.8109 15.461L43.8008 15.49L43.7818 15.547L43.7428 15.662C43.6848 15.822 43.6558 15.95 43.5758 16.129C43.3768 16.535 43.1678 16.948 42.9378 17.174C42.5008 17.72 42.0188 18.041 41.6148 18.327C41.2118 18.61 40.8378 18.807 40.5418 18.978C39.9438 19.313 39.5869 19.502 39.5869 19.502C39.5869 19.502 39.7528 19.131 40.1268 18.544C40.3108 18.259 40.5348 17.912 40.7918 17.515C40.9058 17.321 41.0508 17.121 41.1488 16.903C41.2628 16.69 41.3808 16.475 41.4498 16.251C41.5678 16.013 41.5449 15.85 41.5989 15.692C41.6139 15.578 41.6218 15.389 41.6348 15.239L41.6429 15.117L41.6478 15.056L41.6498 15.026L41.6509 15.011L41.6519 15.003C41.6569 14.97 41.6158 15.263 41.6318 15.136L41.5878 14.961C41.5318 14.729 41.5179 14.502 41.3889 14.258L41.2448 13.895L41.0339 13.52C40.7639 13.016 40.3518 12.5 39.9408 11.965C39.4888 11.437 39.0359 10.899 38.5179 10.337L37.7589 9.46801C37.4889 9.16801 37.2348 8.81501 36.9848 8.47001C36.4848 7.77101 36.0578 6.89801 35.8698 5.96801C35.8378 5.73101 35.8079 5.496 35.7759 5.263C35.7659 5.013 35.7888 4.745 35.8088 4.495C35.8218 4.371 35.8329 4.24 35.8499 4.129L35.9198 3.883C35.9678 3.719 36.0158 3.55801 36.0618 3.39901L36.0718 3.36901C36.0698 3.38001 36.0959 3.254 36.0869 3.303L36.0899 3.29401L36.0968 3.278L36.1238 3.21001L36.1778 3.07601L36.2839 2.814C36.3589 2.641 36.4109 2.474 36.5209 2.306C36.7129 1.974 36.8939 1.66001 37.1599 1.39101C37.3849 1.10601 37.6879 0.908005 37.9479 0.720006C38.2279 0.565006 38.5038 0.44401 38.7528 0.35001C39.0108 0.28301 39.2428 0.209008 39.4628 0.173008C39.6808 0.150008 39.8808 0.129005 40.0618 0.110005C40.4148 0.0690049 40.6858 0.110008 40.8728 0.104008C41.0598 0.114008 41.1618 0.118001 41.1618 0.118001Z" fill="#6C4002"/>
<path d="M51.0545 0.515984C51.0545 0.515984 50.9705 0.568976 50.8105 0.669976C50.6545 0.765976 50.4044 0.901978 50.1254 1.08198C49.9894 1.17298 49.8395 1.27197 49.6765 1.38097C49.5285 1.49697 49.3705 1.62298 49.2005 1.75698C48.9015 2.04998 48.6305 2.37198 48.4845 2.78498C48.3935 2.97198 48.3405 3.20898 48.2885 3.44698C48.2415 3.65798 48.2025 4.02698 48.1885 4.18398C48.1785 4.34998 48.1685 4.51697 48.1585 4.68697L48.1395 4.94198C48.1505 5.00098 48.1694 5.04098 48.1814 5.09098C48.2104 5.18598 48.2195 5.26898 48.2385 5.36898C48.2805 5.48298 48.3175 5.59698 48.3525 5.70998C48.5405 6.16298 48.8155 6.62698 49.2285 7.12698C49.4375 7.37898 49.6565 7.62298 49.8985 7.88998L50.6675 8.72797C51.1755 9.30497 51.7085 9.93898 52.1765 10.604C52.6445 11.29 53.0775 12.008 53.3725 12.826C53.4435 13.029 53.5135 13.231 53.5835 13.431C53.6395 13.642 53.6735 13.866 53.7085 14.079C53.8045 14.497 53.7875 14.95 53.7565 15.376L53.7334 15.691C53.7364 15.664 53.6955 15.961 53.7115 15.839L53.7095 15.847L53.7045 15.861L53.6955 15.89L53.6755 15.948L53.6365 16.062C53.5785 16.223 53.5485 16.349 53.4695 16.529C53.2695 16.934 53.0615 17.348 52.8305 17.574C52.3935 18.12 51.9115 18.441 51.5075 18.727C51.1045 19.009 50.7305 19.206 50.4355 19.377C49.8365 19.712 49.4805 19.902 49.4805 19.902C49.4805 19.902 49.6455 19.53 50.0195 18.944C50.2035 18.658 50.4285 18.312 50.6845 17.915C50.7985 17.721 50.9445 17.52 51.0425 17.302C51.1565 17.089 51.2745 16.875 51.3435 16.65C51.4615 16.413 51.4385 16.249 51.4915 16.092C51.5075 15.977 51.5155 15.789 51.5285 15.638L51.5365 15.517L51.5415 15.456L51.5434 15.426L51.5455 15.411V15.403C51.5625 15.275 51.5224 15.568 51.5264 15.535L51.4815 15.36C51.4255 15.129 51.4115 14.902 51.2825 14.657L51.1395 14.294L50.9274 13.92C50.6574 13.416 50.2455 12.9 49.8355 12.366C49.3825 11.836 48.9295 11.299 48.4125 10.737L47.6514 9.86698C47.3824 9.56798 47.1295 9.21497 46.8785 8.86997C46.3785 8.16997 45.9524 7.29697 45.7634 6.36797C45.7324 6.12997 45.7005 5.89498 45.6705 5.66198C45.6605 5.41198 45.6824 5.14398 45.7034 4.89498C45.7144 4.77098 45.7265 4.63998 45.7435 4.52798L45.8135 4.28198C45.8615 4.11897 45.9085 3.95797 45.9565 3.79897L45.9655 3.76897C45.9635 3.77997 45.9904 3.65298 45.9794 3.70298L45.9834 3.69297L45.9905 3.67698L46.0165 3.60998L46.0705 3.47598L46.1774 3.21297C46.2534 3.03997 46.3044 2.87397 46.4144 2.70597C46.6064 2.37297 46.7865 2.05898 47.0535 1.78898C47.2785 1.50498 47.5804 1.30597 47.8414 1.11797C48.1214 0.962974 48.3975 0.841978 48.6465 0.747978C48.9045 0.680978 49.1355 0.606977 49.3555 0.570977C49.5745 0.547977 49.7745 0.52698 49.9555 0.50898C50.3075 0.46698 50.5785 0.507976 50.7665 0.501976C50.9545 0.511976 51.0545 0.515984 51.0545 0.515984Z" fill="#6C4002"/>
<path d="M78.019 79.354C78.019 81.448 76.69 83.162 75.064 83.162H5.49799C3.87299 83.162 2.54297 81.448 2.54297 79.354V78.903C2.54297 76.809 3.87299 75.096 5.49799 75.096H75.064C76.69 75.096 78.019 76.809 78.019 78.903V79.354Z" fill="#E4C090"/>
</svg>
