<svg width="108" height="77" viewBox="0 0 108 77" fill="none" xmlns="http://www.w3.org/2000/svg">
<path d="M35.0683 71.873H73.2033C88.6363 71.873 101.221 54.885 101.869 38.598C101.886 38.16 105.693 35.362 105.693 34.917H2.61328C2.61328 35.362 6.38227 38.16 6.40027 38.598C7.04927 54.885 19.6363 71.873 35.0683 71.873Z" fill="#6C4002"/>
<path d="M107.443 33.496C107.443 36.305 94.0478 38.58 58.6998 38.58C23.3498 38.58 0.21875 36.305 0.21875 33.496C0.21875 30.686 23.3498 28.411 58.6998 28.411C94.0478 28.411 107.443 30.686 107.443 33.496Z" fill="#E4C090"/>
<path d="M30.1661 75.364C29.2651 76.864 27.3221 77.347 25.8241 76.447C24.3261 75.548 23.8411 73.603 24.7421 72.105L28.0001 66.682C28.9001 65.184 30.8441 64.699 32.3411 65.598C33.8401 66.501 34.3251 68.443 33.4251 69.943L30.1661 75.364Z" fill="#6C4002"/>
<path d="M82.1285 71.958C83.0785 73.423 82.6604 75.382 81.1934 76.333C79.7284 77.283 77.7685 76.867 76.8175 75.398L73.3775 70.089C72.4255 68.625 72.8444 66.665 74.3104 65.714C75.7774 64.762 77.7354 65.181 78.6874 66.648L82.1285 71.958Z" fill="#6C4002"/>
<path d="M15.9654 42.195C15.9514 41.862 14.8804 39.736 14.8804 39.4L10.1484 38.83C10.1484 39.167 11.5234 41.863 11.5374 42.196C12.0304 54.57 21.5924 67.997 33.3164 67.997H37.7454C26.0204 67.996 16.4584 54.569 15.9654 42.195Z" fill="white"/>
<path d="M15.2041 27.703C15.2041 30.005 13.3381 31.868 11.0381 31.868C8.73709 31.868 6.87109 30.005 6.87109 27.703C6.87109 25.404 8.73709 23.538 11.0381 23.538C13.3371 23.538 15.2041 25.404 15.2041 27.703Z" fill="#6C4002"/>
<path d="M12.3161 33.226C12.3161 33.923 11.7501 34.488 11.0521 34.488C10.3551 34.488 9.78906 33.923 9.78906 33.226V21.903C9.78906 21.205 10.3551 20.641 11.0521 20.641C11.7501 20.641 12.3161 21.205 12.3161 21.903V33.226Z" fill="#6C4002"/>
<path d="M5.37529 28.928C4.67829 28.928 4.11328 28.362 4.11328 27.665C4.11328 26.967 4.67829 26.403 5.37529 26.403H16.6993C17.3953 26.403 17.9613 26.967 17.9613 27.665C17.9613 28.362 17.3953 28.928 16.6993 28.928H5.37529Z" fill="#6C4002"/>
<path d="M36.5283 25.421C36.5283 27.724 34.6623 29.587 32.3613 29.587C30.0603 29.587 28.1953 27.724 28.1953 25.421C28.1953 23.12 30.0603 21.255 32.3613 21.255C34.6623 21.255 36.5283 23.12 36.5283 25.421Z" fill="#6C4002"/>
<path d="M33.6383 30.943C33.6383 31.641 33.0743 32.205 32.3743 32.205C31.6773 32.205 31.1133 31.641 31.1133 30.943V19.62C31.1133 18.923 31.6773 18.36 32.3743 18.36C33.0743 18.36 33.6383 18.923 33.6383 19.62V30.943Z" fill="#6C4002"/>
<path d="M26.7015 26.647C26.0045 26.647 25.4375 26.082 25.4375 25.384C25.4375 24.684 26.0045 24.12 26.7015 24.12H38.0255C38.7215 24.12 39.2875 24.684 39.2875 25.384C39.2875 26.082 38.7215 26.647 38.0255 26.647H26.7015Z" fill="#6C4002"/>
<path d="M23.6522 29.587H19.4492V10.36C19.4492 4.76099 24.0052 0.205994 29.6052 0.205994C35.2052 0.205994 39.7602 4.76099 39.7602 10.36H35.5572C35.5572 7.07799 32.8872 4.40899 29.6052 4.40899C26.3232 4.40899 23.6522 7.07899 23.6522 10.36V29.587Z" fill="#6C4002"/>
</svg>
