<svg width="123" height="68" viewBox="0 0 123 68" fill="none" xmlns="http://www.w3.org/2000/svg">
<path d="M66.6566 6.56797C67.9916 4.09097 66.8806 1.392 64.1876 0.572001L64.0566 0.530985C61.3626 -0.288015 57.5986 0.734958 55.6896 2.80296L34.8766 25.359C32.9676 27.427 33.6096 29.791 36.3016 30.61L46.3596 33.672C49.0516 34.492 52.3476 33.134 53.6816 30.656L66.6566 6.56797Z" fill="#6C4002"/>
<path d="M114.045 36.224C112.561 41.059 110.172 45.332 107.788 45.332H12.2577C7.52173 45.332 2.23073 45.167 1.35373 44.364C0.844729 43.901 0.182728 41.399 0.661728 40.364C1.98673 37.51 3.54273 37.409 4.55773 36.224C5.12273 35.568 5.52273 34.585 5.63473 32.633C5.82973 29.17 12.0057 22.692 21.5077 22.692H113.275C116.377 22.691 115.973 29.931 114.045 36.224Z" fill="#6C4002"/>
<path d="M114.4 36.224C112.505 41.001 110.906 44.616 110.54 44.919C110.076 45.3 108.774 45.388 107.715 45.388C106.882 45.388 106.199 45.332 106.199 45.332L99.0273 41.056C99.0273 41.056 99.8914 39.114 101.199 36.224C102.857 32.575 105.22 27.399 107.446 22.691C110.209 16.846 112.766 11.712 113.493 11.079C115.087 9.69799 121.084 9.14499 121.932 11.079C122.892 13.262 118.091 26.931 114.4 36.224Z" fill="#6C4002"/>
<path d="M22.8316 22.69V36.223H4.55859C5.08159 35.567 5.4516 34.584 5.5556 32.633C5.7366 29.169 11.4596 22.69 20.2656 22.69H22.8316Z" fill="#E4C090"/>
<path d="M47.6135 40.273C50.4235 40.109 53.3455 42.193 54.1055 44.905L58.6245 61.004C59.3845 63.7141 57.9345 66.514 55.3995 67.226C52.8645 67.938 49.6285 66.53 48.2085 64.101L41.8465 53.21C40.4245 50.781 39.2585 48.782 39.2515 48.768C39.2435 48.757 38.2525 47.059 37.0475 44.997C35.8425 42.933 34.8255 41.196 34.7895 41.136C34.7545 41.074 37.0245 40.89 39.8345 40.725L47.6135 40.273Z" fill="#6C4002"/>
<path d="M49.0066 31.413C49.0066 34.26 48.8746 36.57 45.0396 36.57H38.6916C34.8566 36.57 34.7266 34.26 34.7266 31.413C34.7266 28.564 34.8566 26.255 38.6916 26.255H45.0396C48.8736 26.255 49.0066 28.564 49.0066 31.413Z" fill="#E4C090"/>
<path d="M75.9274 31.413C75.9274 34.26 75.7964 36.57 71.9624 36.57H65.6134C61.7794 36.57 61.6484 34.26 61.6484 31.413C61.6484 28.564 61.7794 26.255 65.6134 26.255H71.9624C75.7964 26.255 75.9274 28.564 75.9274 31.413Z" fill="#E4C090"/>
<path d="M102.85 31.413C102.85 34.26 102.719 36.57 98.8853 36.57H92.5363C88.7013 36.57 88.5703 34.26 88.5703 31.413C88.5703 28.564 88.7013 26.255 92.5363 26.255H98.8853C102.719 26.255 102.85 28.564 102.85 31.413Z" fill="#E4C090"/>
</svg>
