<svg width="105" height="64" viewBox="0 0 105 64" fill="none" xmlns="http://www.w3.org/2000/svg">
<path d="M52.4182 6.34595C25.9272 6.34595 6.44922 30.8219 6.44922 57.3139H98.3882C98.3882 30.8219 78.9082 6.34595 52.4182 6.34595Z" fill="#6C4002"/>
<path d="M55.4968 2.30597H49.3398V9.89197H55.4968V2.30597Z" fill="#6C4002"/>
<path d="M60.4806 2.18198C60.4806 3.30498 56.8706 4.21597 52.4176 4.21597C47.9636 4.21597 44.3516 3.30498 44.3516 2.18198C44.3516 1.05698 47.9636 0.146973 52.4176 0.146973C56.8706 0.147973 60.4806 1.05698 60.4806 2.18198Z" fill="#6C4002"/>
<path d="M104.655 59.872C104.655 61.966 103.326 63.68 101.701 63.68H3.1347C1.5097 63.68 0.179688 61.966 0.179688 59.872V59.421C0.179688 57.327 1.5097 55.614 3.1347 55.614H101.701C103.326 55.614 104.655 57.327 104.655 59.421V59.872Z" fill="#E4C090"/>
<path d="M52.1761 9.70393C51.4161 9.66393 50.6511 9.63794 49.8811 9.63794C27.0271 9.63794 10.4961 31.1659 10.4961 54.0209H15.0841C15.0841 31.9389 30.3881 10.8949 52.1761 9.70393Z" fill="white"/>
</svg>
