<svg width="85" height="81" viewBox="0 0 85 81" fill="none" xmlns="http://www.w3.org/2000/svg">
<path d="M77.4652 42.712C67.7582 52.421 52.0182 52.421 42.3072 42.712C32.6012 33.006 32.6002 17.265 42.3072 7.55398C52.0172 -2.15602 67.7582 -2.15602 77.4652 7.55398C87.1722 17.264 87.1722 33.005 77.4652 42.712Z" fill="#6C4002"/>
<path d="M72.6378 21.588C70.0588 24.168 65.8768 24.168 63.2968 21.588C60.7188 19.009 60.7188 14.83 63.2968 12.249C65.8768 9.66998 70.0588 9.66998 72.6378 12.249C75.2148 14.83 75.2148 19.009 72.6378 21.588Z" fill="#E4C090"/>
<path d="M16.6608 79.97C15.7798 80.852 14.3378 80.852 13.4568 79.97L6.24278 72.754C5.36178 71.873 5.36178 70.431 6.24278 69.551L6.33879 69.455C7.22079 68.574 8.66177 68.574 9.54277 69.455L16.7568 76.669C17.6388 77.55 17.6388 78.992 16.7578 79.873L16.6608 79.97Z" fill="#6C4002"/>
<path d="M25.1686 75.486C24.2876 76.367 22.8466 76.367 21.9646 75.486L14.7506 68.27C13.8696 67.388 13.8696 65.947 14.7506 65.065L14.8466 64.969C15.7276 64.09 17.1696 64.09 18.0506 64.969L25.2656 72.184C26.1466 73.064 26.1466 74.507 25.2656 75.388L25.1686 75.486Z" fill="#6C4002"/>
<path d="M29.9928 68.133C29.1128 69.015 27.6708 69.016 26.7888 68.134L19.5748 60.919C18.6938 60.037 18.6938 58.5961 19.5748 57.7151L19.6708 57.618C20.5518 56.738 21.9938 56.738 22.8748 57.618L30.0878 64.833C30.9698 65.714 30.9698 67.156 30.0888 68.037L29.9928 68.133Z" fill="#6C4002"/>
<path d="M36.5241 63.046C35.6431 63.927 34.2011 63.927 33.3201 63.046L26.1061 55.831C25.2251 54.95 25.2251 53.508 26.1061 52.627L26.2021 52.531C27.0831 51.65 28.5241 51.65 29.4061 52.531L36.6211 59.745C37.5031 60.625 37.5031 62.067 36.6211 62.948L36.5241 63.046Z" fill="#6C4002"/>
<path d="M53.7737 38.938L43.6917 28.995L6.71373 65.468C6.59973 65.546 6.48972 65.632 6.38972 65.732L1.57872 70.543C0.697719 71.424 0.697719 72.866 1.57872 73.747L3.74971 75.919C4.63171 76.801 6.07272 76.801 6.95372 75.919L8.18172 74.692L12.8517 79.298L53.7737 38.938Z" fill="#6C4002"/>
</svg>
